{
	"asset":{
		"generator":"Khronos glTF Blender I/O v4.3.47",
		"version":"2.0"
	},
	"extensionsUsed":[
		"KHR_materials_specular"
	],
	"scene":0,
	"scenes":[
		{
			"name":"Scene",
			"nodes":[
				0,
				1,
				2,
				3,
				4,
				5,
				6,
				7,
				8,
				9
			]
		}
	],
	"nodes":[
		{
			"mesh":0,
			"name":"group1",
			"rotation":[
				0.7071068286895752,
				0,
				0,
				0.7071068286895752
			],
			"scale":[
				0.009999990463256836,
				0.009999990463256836,
				0.009999990463256836
			]
		},
		{
			"mesh":1,
			"name":"group10",
			"rotation":[
				0.7071068286895752,
				0,
				0,
				0.7071068286895752
			],
			"scale":[
				0.009999990463256836,
				0.009999990463256836,
				0.009999990463256836
			]
		},
		{
			"mesh":2,
			"name":"group2",
			"rotation":[
				0.7071068286895752,
				0,
				0,
				0.7071068286895752
			],
			"scale":[
				0.009999990463256836,
				0.009999990463256836,
				0.009999990463256836
			]
		},
		{
			"mesh":3,
			"name":"group3",
			"rotation":[
				0.7071068286895752,
				0,
				0,
				0.7071068286895752
			],
			"scale":[
				0.009999990463256836,
				0.009999990463256836,
				0.009999990463256836
			]
		},
		{
			"mesh":4,
			"name":"group4",
			"rotation":[
				0.7071068286895752,
				0,
				0,
				0.7071068286895752
			],
			"scale":[
				0.009999990463256836,
				0.009999990463256836,
				0.009999990463256836
			]
		},
		{
			"mesh":5,
			"name":"group5",
			"rotation":[
				0.7071068286895752,
				0,
				0,
				0.7071068286895752
			],
			"scale":[
				0.009999990463256836,
				0.009999990463256836,
				0.009999990463256836
			]
		},
		{
			"mesh":6,
			"name":"group6",
			"rotation":[
				0.7071068286895752,
				0,
				0,
				0.7071068286895752
			],
			"scale":[
				0.009999990463256836,
				0.009999990463256836,
				0.009999990463256836
			]
		},
		{
			"mesh":7,
			"name":"group7",
			"rotation":[
				0.7071068286895752,
				0,
				0,
				0.7071068286895752
			],
			"scale":[
				0.009999990463256836,
				0.009999990463256836,
				0.009999990463256836
			]
		},
		{
			"mesh":8,
			"name":"group8",
			"rotation":[
				0.7071068286895752,
				0,
				0,
				0.7071068286895752
			],
			"scale":[
				0.009999990463256836,
				0.009999990463256836,
				0.009999990463256836
			]
		},
		{
			"mesh":9,
			"name":"group9",
			"rotation":[
				0.7071068286895752,
				0,
				0,
				0.7071068286895752
			],
			"scale":[
				0.009999976493418217,
				0.009999990463256836,
				0.009999990463256836
			]
		}
	],
	"materials":[
		{
			"doubleSided":true,
			"extensions":{
				"KHR_materials_specular":{
					"specularFactor":0
				}
			},
			"name":"mayu",
			"pbrMetallicRoughness":{
				"baseColorFactor":[
					0.800000011920929,
					0.800000011920929,
					0.800000011920929,
					1
				],
				"metallicFactor":0
			}
		},
		{
			"doubleSided":true,
			"extensions":{
				"KHR_materials_specular":{
					"specularFactor":0
				}
			},
			"name":"sheath",
			"pbrMetallicRoughness":{
				"baseColorTexture":{
					"index":0
				},
				"metallicFactor":0
			}
		},
		{
			"doubleSided":true,
			"extensions":{
				"KHR_materials_specular":{
					"specularFactor":0
				}
			},
			"name":"main",
			"pbrMetallicRoughness":{
				"baseColorTexture":{
					"index":1
				},
				"metallicFactor":0
			}
		},
		{
			"doubleSided":true,
			"extensions":{
				"KHR_materials_specular":{
					"specularFactor":0
				}
			},
			"name":"boots",
			"pbrMetallicRoughness":{
				"baseColorTexture":{
					"index":2
				},
				"metallicFactor":0
			}
		},
		{
			"doubleSided":true,
			"extensions":{
				"KHR_materials_specular":{
					"specularFactor":0
				}
			},
			"name":"eye",
			"pbrMetallicRoughness":{
				"baseColorTexture":{
					"index":3
				},
				"metallicFactor":0
			}
		},
		{
			"doubleSided":true,
			"extensions":{
				"KHR_materials_specular":{
					"specularFactor":0
				}
			},
			"name":"mouth",
			"pbrMetallicRoughness":{
				"baseColorTexture":{
					"index":4
				},
				"metallicFactor":0
			}
		},
		{
			"doubleSided":true,
			"extensions":{
				"KHR_materials_specular":{
					"specularFactor":0
				}
			},
			"name":"handopen",
			"pbrMetallicRoughness":{
				"baseColorTexture":{
					"index":5
				},
				"metallicFactor":0
			}
		},
		{
			"doubleSided":true,
			"extensions":{
				"KHR_materials_specular":{
					"specularFactor":0
				}
			},
			"name":"bracelet",
			"pbrMetallicRoughness":{
				"baseColorTexture":{
					"index":6
				},
				"metallicFactor":0
			}
		},
		{
			"doubleSided":true,
			"extensions":{
				"KHR_materials_specular":{
					"specularFactor":0
				}
			},
			"name":"glove",
			"pbrMetallicRoughness":{
				"baseColorTexture":{
					"index":7
				},
				"metallicFactor":0
			}
		}
	],
	"meshes":[
		{
			"name":"group1",
			"primitives":[
				{
					"attributes":{
						"POSITION":0,
						"NORMAL":1,
						"TEXCOORD_0":2
					},
					"indices":3,
					"material":0
				}
			]
		},
		{
			"name":"group10",
			"primitives":[
				{
					"attributes":{
						"POSITION":4,
						"NORMAL":5,
						"TEXCOORD_0":6
					},
					"indices":7,
					"material":1
				}
			]
		},
		{
			"name":"group2",
			"primitives":[
				{
					"attributes":{
						"POSITION":8,
						"NORMAL":9,
						"TEXCOORD_0":10
					},
					"indices":11,
					"material":2
				}
			]
		},
		{
			"name":"group3",
			"primitives":[
				{
					"attributes":{
						"POSITION":12,
						"NORMAL":13,
						"TEXCOORD_0":14
					},
					"indices":15,
					"material":2
				}
			]
		},
		{
			"name":"group4",
			"primitives":[
				{
					"attributes":{
						"POSITION":16,
						"NORMAL":17,
						"TEXCOORD_0":18
					},
					"indices":19,
					"material":3
				}
			]
		},
		{
			"name":"group5",
			"primitives":[
				{
					"attributes":{
						"POSITION":20,
						"NORMAL":21,
						"TEXCOORD_0":22
					},
					"indices":23,
					"material":4
				}
			]
		},
		{
			"name":"group6",
			"primitives":[
				{
					"attributes":{
						"POSITION":24,
						"NORMAL":25,
						"TEXCOORD_0":26
					},
					"indices":27,
					"material":5
				}
			]
		},
		{
			"name":"group7",
			"primitives":[
				{
					"attributes":{
						"POSITION":28,
						"NORMAL":29,
						"TEXCOORD_0":30
					},
					"indices":31,
					"material":6
				}
			]
		},
		{
			"name":"group8",
			"primitives":[
				{
					"attributes":{
						"POSITION":32,
						"NORMAL":33,
						"TEXCOORD_0":34
					},
					"indices":35,
					"material":7
				}
			]
		},
		{
			"name":"group9",
			"primitives":[
				{
					"attributes":{
						"POSITION":36,
						"NORMAL":37,
						"TEXCOORD_0":38
					},
					"indices":39,
					"material":8
				}
			]
		}
	],
	"textures":[
		{
			"sampler":0,
			"source":0
		},
		{
			"sampler":0,
			"source":1
		},
		{
			"sampler":0,
			"source":2
		},
		{
			"sampler":0,
			"source":3
		},
		{
			"sampler":0,
			"source":4
		},
		{
			"sampler":0,
			"source":5
		},
		{
			"sampler":0,
			"source":6
		},
		{
			"sampler":0,
			"source":7
		}
	],
	"images":[
		{
			"mimeType":"image/png",
			"name":"sheath.0.png",
			"uri":"../../3d-demo/assets/sheath.0.png"
		},
		{
			"mimeType":"image/png",
			"name":"main.0.png",
			"uri":"../../3d-demo/assets/main.0.png"
		},
		{
			"mimeType":"image/png",
			"name":"boots.0.png",
			"uri":"../../3d-demo/assets/boots.0.png"
		},
		{
			"mimeType":"image/png",
			"name":"eye.0.png",
			"uri":"../../3d-demo/assets/eye.0.png"
		},
		{
			"mimeType":"image/png",
			"name":"mouth.0.png",
			"uri":"../../3d-demo/assets/mouth.0.png"
		},
		{
			"mimeType":"image/png",
			"name":"handopen.0.png",
			"uri":"../../3d-demo/assets/handopen.0.png"
		},
		{
			"mimeType":"image/png",
			"name":"bracelet.0.png",
			"uri":"../../3d-demo/assets/bracelet.0.png"
		},
		{
			"mimeType":"image/png",
			"name":"glove.0.png",
			"uri":"../../3d-demo/assets/glove.0.png"
		}
	],
	"accessors":[
		{
			"bufferView":0,
			"componentType":5126,
			"count":10,
			"max":[
				231.947998046875,
				193.156005859375,
				-1186.030029296875
			],
			"min":[
				-231.947998046875,
				90.7593002319336,
				-1417.969970703125
			],
			"type":"VEC3"
		},
		{
			"bufferView":1,
			"componentType":5126,
			"count":10,
			"type":"VEC3"
		},
		{
			"bufferView":2,
			"componentType":5126,
			"count":10,
			"type":"VEC2"
		},
		{
			"bufferView":3,
			"componentType":5123,
			"count":24,
			"type":"SCALAR"
		},
		{
			"bufferView":4,
			"componentType":5126,
			"count":31,
			"max":[
				190.59500122070312,
				-192.48500061035156,
				-249.77699279785156
			],
			"min":[
				-8.610199928283691,
				-255.3459930419922,
				-963.0698852539062
			],
			"type":"VEC3"
		},
		{
			"bufferView":5,
			"componentType":5126,
			"count":31,
			"type":"VEC3"
		},
		{
			"bufferView":6,
			"componentType":5126,
			"count":31,
			"type":"VEC2"
		},
		{
			"bufferView":7,
			"componentType":5123,
			"count":138,
			"type":"SCALAR"
		},
		{
			"bufferView":8,
			"componentType":5126,
			"count":454,
			"max":[
				554.8740234375,
				474.5870056152344,
				-192.0570068359375
			],
			"min":[
				-554.875,
				-255.96299743652344,
				-1604.56005859375
			],
			"type":"VEC3"
		},
		{
			"bufferView":9,
			"componentType":5126,
			"count":454,
			"type":"VEC3"
		},
		{
			"bufferView":10,
			"componentType":5126,
			"count":454,
			"type":"VEC2"
		},
		{
			"bufferView":11,
			"componentType":5123,
			"count":1932,
			"type":"SCALAR"
		},
		{
			"bufferView":12,
			"componentType":5126,
			"count":286,
			"max":[
				261.3699951171875,
				185.8820037841797,
				-326.2239990234375
			],
			"min":[
				-242.4669952392578,
				-808.6539916992188,
				-1514.4300537109375
			],
			"type":"VEC3"
		},
		{
			"bufferView":13,
			"componentType":5126,
			"count":286,
			"type":"VEC3"
		},
		{
			"bufferView":14,
			"componentType":5126,
			"count":286,
			"type":"VEC2"
		},
		{
			"bufferView":15,
			"componentType":5123,
			"count":1110,
			"type":"SCALAR"
		},
		{
			"bufferView":16,
			"componentType":5126,
			"count":62,
			"max":[
				229.44700622558594,
				202.30799865722656,
				0.0017999999690800905
			],
			"min":[
				-229.44700622558594,
				-94.5250015258789,
				-197.7010040283203
			],
			"type":"VEC3"
		},
		{
			"bufferView":17,
			"componentType":5126,
			"count":62,
			"type":"VEC3"
		},
		{
			"bufferView":18,
			"componentType":5126,
			"count":62,
			"type":"VEC2"
		},
		{
			"bufferView":19,
			"componentType":5123,
			"count":210,
			"type":"SCALAR"
		},
		{
			"bufferView":20,
			"componentType":5126,
			"count":18,
			"max":[
				180.97300720214844,
				165.41000366210938,
				-1162.8599853515625
			],
			"min":[
				-180.97300720214844,
				91.48249816894531,
				-1295.8900146484375
			],
			"type":"VEC3"
		},
		{
			"bufferView":21,
			"componentType":5126,
			"count":18,
			"type":"VEC3"
		},
		{
			"bufferView":22,
			"componentType":5126,
			"count":18,
			"type":"VEC2"
		},
		{
			"bufferView":23,
			"componentType":5123,
			"count":48,
			"type":"SCALAR"
		},
		{
			"bufferView":24,
			"componentType":5126,
			"count":20,
			"max":[
				129.79200744628906,
				190.84300231933594,
				-973.7639770507812
			],
			"min":[
				-129.79200744628906,
				62.19049835205078,
				-1092.9000244140625
			],
			"type":"VEC3"
		},
		{
			"bufferView":25,
			"componentType":5126,
			"count":20,
			"type":"VEC3"
		},
		{
			"bufferView":26,
			"componentType":5126,
			"count":20,
			"type":"VEC2"
		},
		{
			"bufferView":27,
			"componentType":5123,
			"count":72,
			"type":"SCALAR"
		},
		{
			"bufferView":28,
			"componentType":5126,
			"count":194,
			"max":[
				784.8489990234375,
				95.61100006103516,
				-772.4409790039062
			],
			"min":[
				-784.8270263671875,
				-76.69840240478516,
				-898.47900390625
			],
			"type":"VEC3"
		},
		{
			"bufferView":29,
			"componentType":5126,
			"count":194,
			"type":"VEC3"
		},
		{
			"bufferView":30,
			"componentType":5126,
			"count":194,
			"type":"VEC2"
		},
		{
			"bufferView":31,
			"componentType":5123,
			"count":930,
			"type":"SCALAR"
		},
		{
			"bufferView":32,
			"componentType":5126,
			"count":20,
			"max":[
				560.1270141601562,
				85.62920379638672,
				-732.5910034179688
			],
			"min":[
				452.3550109863281,
				-89.63690185546875,
				-932.177001953125
			],
			"type":"VEC3"
		},
		{
			"bufferView":33,
			"componentType":5126,
			"count":20,
			"type":"VEC3"
		},
		{
			"bufferView":34,
			"componentType":5126,
			"count":20,
			"type":"VEC2"
		},
		{
			"bufferView":35,
			"componentType":5123,
			"count":60,
			"type":"SCALAR"
		},
		{
			"bufferView":36,
			"componentType":5126,
			"count":84,
			"max":[
				763.676025390625,
				96.10549926757812,
				-753.9249877929688
			],
			"min":[
				-763.676025390625,
				-96.5188980102539,
				-931.5029907226562
			],
			"type":"VEC3"
		},
		{
			"bufferView":37,
			"componentType":5126,
			"count":84,
			"type":"VEC3"
		},
		{
			"bufferView":38,
			"componentType":5126,
			"count":84,
			"type":"VEC2"
		},
		{
			"bufferView":39,
			"componentType":5123,
			"count":456,
			"type":"SCALAR"
		}
	],
	"bufferViews":[
		{
			"buffer":0,
			"byteLength":120,
			"byteOffset":0,
			"target":34962
		},
		{
			"buffer":0,
			"byteLength":120,
			"byteOffset":120,
			"target":34962
		},
		{
			"buffer":0,
			"byteLength":80,
			"byteOffset":240,
			"target":34962
		},
		{
			"buffer":0,
			"byteLength":48,
			"byteOffset":320,
			"target":34963
		},
		{
			"buffer":0,
			"byteLength":372,
			"byteOffset":368,
			"target":34962
		},
		{
			"buffer":0,
			"byteLength":372,
			"byteOffset":740,
			"target":34962
		},
		{
			"buffer":0,
			"byteLength":248,
			"byteOffset":1112,
			"target":34962
		},
		{
			"buffer":0,
			"byteLength":276,
			"byteOffset":1360,
			"target":34963
		},
		{
			"buffer":0,
			"byteLength":5448,
			"byteOffset":1636,
			"target":34962
		},
		{
			"buffer":0,
			"byteLength":5448,
			"byteOffset":7084,
			"target":34962
		},
		{
			"buffer":0,
			"byteLength":3632,
			"byteOffset":12532,
			"target":34962
		},
		{
			"buffer":0,
			"byteLength":3864,
			"byteOffset":16164,
			"target":34963
		},
		{
			"buffer":0,
			"byteLength":3432,
			"byteOffset":20028,
			"target":34962
		},
		{
			"buffer":0,
			"byteLength":3432,
			"byteOffset":23460,
			"target":34962
		},
		{
			"buffer":0,
			"byteLength":2288,
			"byteOffset":26892,
			"target":34962
		},
		{
			"buffer":0,
			"byteLength":2220,
			"byteOffset":29180,
			"target":34963
		},
		{
			"buffer":0,
			"byteLength":744,
			"byteOffset":31400,
			"target":34962
		},
		{
			"buffer":0,
			"byteLength":744,
			"byteOffset":32144,
			"target":34962
		},
		{
			"buffer":0,
			"byteLength":496,
			"byteOffset":32888,
			"target":34962
		},
		{
			"buffer":0,
			"byteLength":420,
			"byteOffset":33384,
			"target":34963
		},
		{
			"buffer":0,
			"byteLength":216,
			"byteOffset":33804,
			"target":34962
		},
		{
			"buffer":0,
			"byteLength":216,
			"byteOffset":34020,
			"target":34962
		},
		{
			"buffer":0,
			"byteLength":144,
			"byteOffset":34236,
			"target":34962
		},
		{
			"buffer":0,
			"byteLength":96,
			"byteOffset":34380,
			"target":34963
		},
		{
			"buffer":0,
			"byteLength":240,
			"byteOffset":34476,
			"target":34962
		},
		{
			"buffer":0,
			"byteLength":240,
			"byteOffset":34716,
			"target":34962
		},
		{
			"buffer":0,
			"byteLength":160,
			"byteOffset":34956,
			"target":34962
		},
		{
			"buffer":0,
			"byteLength":144,
			"byteOffset":35116,
			"target":34963
		},
		{
			"buffer":0,
			"byteLength":2328,
			"byteOffset":35260,
			"target":34962
		},
		{
			"buffer":0,
			"byteLength":2328,
			"byteOffset":37588,
			"target":34962
		},
		{
			"buffer":0,
			"byteLength":1552,
			"byteOffset":39916,
			"target":34962
		},
		{
			"buffer":0,
			"byteLength":1860,
			"byteOffset":41468,
			"target":34963
		},
		{
			"buffer":0,
			"byteLength":240,
			"byteOffset":43328,
			"target":34962
		},
		{
			"buffer":0,
			"byteLength":240,
			"byteOffset":43568,
			"target":34962
		},
		{
			"buffer":0,
			"byteLength":160,
			"byteOffset":43808,
			"target":34962
		},
		{
			"buffer":0,
			"byteLength":120,
			"byteOffset":43968,
			"target":34963
		},
		{
			"buffer":0,
			"byteLength":1008,
			"byteOffset":44088,
			"target":34962
		},
		{
			"buffer":0,
			"byteLength":1008,
			"byteOffset":45096,
			"target":34962
		},
		{
			"buffer":0,
			"byteLength":672,
			"byteOffset":46104,
			"target":34962
		},
		{
			"buffer":0,
			"byteLength":912,
			"byteOffset":46776,
			"target":34963
		}
	],
	"samplers":[
		{
			"magFilter":9729,
			"minFilter":9987
		}
	],
	"buffers":[
		{
			"byteLength":47688,
			"uri":"link.bin"
		}
	]
}
